{"title":"The Musketeers S01E08 The Challenge HDTV x264 AAC E-Subs [GWC].m","uid":9777908,"size":198561459,"categoryP":"video","categoryS":"tv_shows","magnet":"?xt=urn:btih:f0487cb737a04940acdcd68d7f789a2e90e90daa&amp;dn=The+Musketeers+S01E08+The+Challenge+HDTV+x264+AAC+E-Subs+%5BGWC%5D.m&amp;tr=udp%3A%2F%2Ftracker.openbittorrent.com%3A80&amp;tr=udp%3A%2F%2Fopen.demonii.com%3A1337&amp;tr=udp%3A%2F%2Ftracker.coppersurfer.tk%3A6969&amp;tr=udp%3A%2F%2Fexodus.desync.com%3A6969","seeders":1,"leechers":0,"uploader":"canc232","files":1,"time":1395067324,"description":"The Musketeers s01e08 The Challenge HDTV x264 AAC E-Subs [GWC]\n\n\nSTORYLINE :\nSet on the streets of 17th century Paris, series gives a contemporary take on the classic story about a group of highly trained soldiers and bodyguards assigned to protect King and country. \n\n\nSCREENS : &lt;a href=&quot;\nhttp://i.imgur.com/xzxxs0O.jpg&quot; rel=&quot;nofollow&quot; target=&quot;_NEW&quot;&gt;\nhttp://i.imgur.com/xzxxs0O.jpg&lt;/a&gt; &lt;a href=&quot;\nhttp://i.imgur.com/gzMTs8G.jpg&quot; rel=&quot;nofollow&quot; target=&quot;_NEW&quot;&gt;\nhttp://i.imgur.com/gzMTs8G.jpg&lt;/a&gt; &lt;a href=&quot;\nhttp://i.imgur.com/Xl7d2PP.jpg&quot; rel=&quot;nofollow&quot; target=&quot;_NEW&quot;&gt;\nhttp://i.imgur.com/Xl7d2PP.jpg&lt;/a&gt;\n\n\nMEDIA INFO :\nGeneral \nFormat : MPEG-4 \nFormat profile : Base Media \nFile size : 189 MiB \nDuration : 55mn 41s \nOverall bit rate mode : Variable \nOverall bit rate : 475 Kbps \n\nVideo \nFormat : AVC \nFormat profile : &lt;a class=&quot;__cf_email__&quot; href=&quot;/cdn-cgi/l/email-protection&quot; data-cfemail=&quot;074f6e606f474b342937&quot;&gt;[email&amp;#160;protected]&lt;/a&gt;&lt;script cf-hash='f9e31' type=&quot;text/javascript&quot;&gt;\n/* &lt;![CDATA[ */!function(){try{var t=&quot;currentScript&quot;in document?document.currentScript:function(){for(var t=document.getElementsByTagName(&quot;script&quot;),e=t.length;e--;)if(t[e].getAttribute(&quot;cf-hash&quot;))return t[e]}();if(t&amp;&amp;t.previousSibling){var e,r,n,i,c=t.previousSibling,a=c.getAttribute(&quot;data-cfemail&quot;);if(a){for(e=&quot;&quot;,r=parseInt(a.substr(0,2),16),n=2;a.length-n;n+=2)i=parseInt(a.substr(n,2),16)^r,e+=String.fromCharCode(i);e=document.createTextNode(e),c.parentNode.replaceChild(e,c)}}}catch(u){}}();/* ]]&gt; */&lt;/script&gt; \nFormat settings, CABAC : Yes \nFormat settings, ReFrames : 4 frames \nDuration : 55mn 34s \nBit rate : 414 Kbps \nMaximum bit rate : 2 405 Kbps \nWidth : 720 pixels \nHeight : 404 pixels \nFrame rate : 25.000 fps \nColor space : YUV \nStream size : 165 MiB (87%) \nTitle : The Musketeers S01E08 The Challenge HDTV x264 AAC E-Subs [GWC] \nWriting library : x264 core \n\nAudio \nFormat : AAC \nFormat profile : HE-AAC / LC \nDuration : 55mn 34s \nBit rate mode : Variable \nChannel(s) : 2 channels \nSampling rate : 48.0 KHz / 24.0 KHz \nStream size : 23.5 MiB (12%) \nLanguage : English \n\nText \nFormat : Timed Text \nTitle : English Subtitle by MemoryOnSmells \nLanguage : English ","torrent":{"xt":"urn:btih:f0487cb737a04940acdcd68d7f789a2e90e90daa","amp;dn":"The+Musketeers+S01E08+The+Challenge+HDTV+x264+AAC+E-Subs+%5BGWC%5D.m","amp;tr":["udp%3A%2F%2Ftracker.openbittorrent.com%3A80","udp%3A%2F%2Fopen.demonii.com%3A1337","udp%3A%2F%2Ftracker.coppersurfer.tk%3A6969","udp%3A%2F%2Fexodus.desync.com%3A6969"],"infoHash":"f0487cb737a04940acdcd68d7f789a2e90e90daa","infoHashBuffer":{"type":"Buffer","data":[240,72,124,183,55,160,73,64,172,220,214,141,127,120,154,46,144,233,13,170]},"announce":[],"urlList":[]}}